<svg width="130" height="186" viewBox="0 0 130 186" fill="none" xmlns="http://www.w3.org/2000/svg">
<path d="M64.6871 0C29.2153 0 0.357422 28.8621 0.357422 64.3349C0.357422 98.4804 57.0148 176.622 59.5 180H63.5C63.7712 180.371 65.3974 180 65.8518 180C66.3132 180 68.0562 179.041 68.3302 178.67L69.5 180.305C71.9867 176.926 129.022 98.4804 129.022 64.3349C129.022 28.8621 100.16 0 64.6871 0ZM64.6871 41.2902C77.3968 41.2902 87.7318 51.6257 87.7318 64.3349C87.7318 77.0375 77.3963 87.3795 64.6871 87.3795C51.985 87.3795 41.6425 77.0375 41.6425 64.3349C41.6425 51.6257 51.9845 41.2902 64.6871 41.2902Z" fill="#F9F9F9"/>
<path d="M44 178.862H85.3482" stroke="#8CB0FA" stroke-width="3" stroke-linecap="round"/>
<circle cx="64.5" cy="64.5" r="23.5" fill="#DCF36E"/>
</svg>
