<svg width="1920" height="323" viewBox="0 0 1920 323" fill="none" xmlns="http://www.w3.org/2000/svg">
<path d="M1214.7 137.375C1179.23 137.375 1150.38 166.237 1150.38 201.71C1150.38 235.855 1207.03 313.997 1209.52 317.375H1213.52C1213.79 317.746 1215.41 317.375 1215.87 317.375C1216.33 317.375 1218.07 316.416 1218.35 316.045L1219.52 317.68C1222 314.301 1279.04 235.855 1279.04 201.71C1279.04 166.237 1250.18 137.375 1214.7 137.375ZM1214.7 178.665C1227.41 178.665 1237.75 189.001 1237.75 201.71C1237.75 214.413 1227.41 224.755 1214.7 224.755C1202 224.755 1191.66 214.413 1191.66 201.71C1191.66 189.001 1202 178.665 1214.7 178.665Z" fill="#F9F9F9"/>
<path d="M1194.02 316.238H1235.36" stroke="#8CB0FA" stroke-width="3" stroke-linecap="round"/>
<circle cx="1214.52" cy="201.875" r="23.5" fill="#DCF36E"/>
<path fill-rule="evenodd" clip-rule="evenodd" d="M0 191.709V0H1920V191.709H1472.44C1427.21 189.406 1383.91 172.199 1349.37 142.615L1341.85 136.17C1267.2 72.2344 1156.54 74.1953 1084.2 140.734C1050.88 171.387 1007.97 189.352 962.965 191.709H0Z" fill="#FDFDFD"/>
</svg>
