<svg width="1920" height="311" viewBox="0 0 1920 311" fill="none" xmlns="http://www.w3.org/2000/svg">
<path d="M1419.95 126.107C1384.48 126.107 1355.62 154.894 1355.62 190.273C1355.62 224.329 1412.28 302.266 1414.77 305.635H1418.77C1419.04 306.005 1420.66 305.635 1421.12 305.635C1421.58 305.635 1423.32 304.678 1423.6 304.308L1424.77 305.939C1427.25 302.569 1484.29 224.329 1484.29 190.273C1484.29 154.894 1455.43 126.107 1419.95 126.107ZM1419.95 167.289C1432.66 167.289 1443 177.598 1443 190.273C1443 202.943 1432.66 213.258 1419.95 213.258C1407.25 213.258 1396.91 202.943 1396.91 190.273C1396.91 177.598 1407.25 167.289 1419.95 167.289Z" fill="#F9F9F9"/>
<path d="M1399.27 304.5H1440.61" stroke="#8CB0FA" stroke-width="3" stroke-linecap="round"/>
<ellipse cx="1419.77" cy="190.438" rx="23.5" ry="23.4383" fill="#DCF36E"/>
<path fill-rule="evenodd" clip-rule="evenodd" d="M0 0V272.56C0 217.331 44.7715 172.56 100 172.56H1165.82C1212.63 172.56 1257.82 155.36 1292.78 124.23C1363.33 61.4202 1469.2 59.6344 1541.83 120.03L1548.95 125.946C1585.17 156.068 1630.79 172.56 1677.9 172.56H1845.5C1886.65 172.56 1920 205.915 1920 247.06V0H0Z" fill="#FDFDFD"/>
</svg>
