<svg width="16" height="15" viewBox="0 0 16 15" fill="none" xmlns="http://www.w3.org/2000/svg">
<path d="M12.5338 6.82255C12.4713 6.88527 12.397 6.93503 12.3152 6.96899C12.2334 7.00294 12.1458 7.02042 12.0572 7.02042C11.9687 7.02042 11.881 7.00294 11.7993 6.96899C11.7175 6.93503 11.6432 6.88527 11.5807 6.82255L8.69414 3.93597V12.1769C8.69414 12.3554 8.62326 12.5265 8.4971 12.6526C8.37093 12.7788 8.19982 12.8497 8.0214 12.8497C7.84298 12.8497 7.67187 12.7788 7.54571 12.6526C7.41955 12.5265 7.34867 12.3554 7.34867 12.1769L7.34867 3.93597L4.46097 6.82255C4.33458 6.94893 4.16318 7.01993 3.98445 7.01993C3.80572 7.01993 3.63431 6.94893 3.50793 6.82255C3.38155 6.69617 3.31055 6.52476 3.31055 6.34603C3.31055 6.16731 3.38155 5.9959 3.50793 5.86952L7.54432 1.83312C7.60682 1.7704 7.68109 1.72064 7.76286 1.68669C7.84463 1.65273 7.9323 1.63525 8.02084 1.63525C8.10938 1.63525 8.19705 1.65273 8.27883 1.68669C8.3606 1.72064 8.43486 1.7704 8.49736 1.83312L12.5338 5.86952C12.5965 5.93201 12.6462 6.00628 12.6802 6.08805C12.7141 6.16982 12.7316 6.25749 12.7316 6.34603C12.7316 6.43458 12.7141 6.52225 12.6802 6.60402C12.6462 6.68579 12.5965 6.76005 12.5338 6.82255Z" fill="#F9F9F9"/>
</svg>
