<svg width="61" height="60" viewBox="0 0 61 60" fill="none" xmlns="http://www.w3.org/2000/svg">
<path d="M49.585 28.2398C49.3237 28.502 49.0132 28.71 48.6713 28.852C48.3295 28.9939 47.9629 29.067 47.5928 29.067C47.2226 29.067 46.8561 28.9939 46.5142 28.852C46.1724 28.71 45.8619 28.502 45.6006 28.2398L33.5326 16.1718V50.6249C33.5326 51.3708 33.2363 52.0862 32.7088 52.6136C32.1814 53.1411 31.466 53.4374 30.7201 53.4374C29.9742 53.4374 29.2588 53.1411 28.7314 52.6136C28.2039 52.0862 27.9076 51.3708 27.9076 50.6249L27.9076 16.1718L15.835 28.2398C15.3066 28.7681 14.59 29.0649 13.8428 29.0649C13.0956 29.0649 12.3789 28.7681 11.8506 28.2398C11.3222 27.7114 11.0254 26.9948 11.0254 26.2476C11.0254 25.5004 11.3222 24.7837 11.8506 24.2554L28.7256 7.38038C28.9869 7.11818 29.2974 6.91014 29.6392 6.76819C29.9811 6.62623 30.3476 6.55316 30.7178 6.55316C31.0879 6.55316 31.4545 6.62623 31.7963 6.76819C32.1382 6.91014 32.4487 7.11818 32.71 7.38038L49.585 24.2554C49.8472 24.5167 50.0552 24.8272 50.1972 25.169C50.3391 25.5109 50.4122 25.8774 50.4122 26.2476C50.4122 26.6177 50.3391 26.9843 50.1972 27.3261C50.0552 27.668 49.8472 27.9785 49.585 28.2398Z" fill="#191919"/>
</svg>
