<svg width="29" height="29" viewBox="0 0 29 29" fill="none" xmlns="http://www.w3.org/2000/svg">
<path d="M15.3502 23.6176C15.2234 23.4913 15.1229 23.3412 15.0543 23.176C14.9857 23.0108 14.9504 22.8336 14.9504 22.6547C14.9504 22.4758 14.9857 22.2986 15.0543 22.1334C15.1229 21.9682 15.2234 21.8181 15.3502 21.6918L21.183 15.859L4.53069 15.859C4.17016 15.859 3.82439 15.7157 3.56946 15.4608C3.31453 15.2059 3.17131 14.8601 3.17131 14.4996C3.17131 14.1391 3.31453 13.7933 3.56946 13.5384C3.82439 13.2834 4.17016 13.1402 4.53069 13.1402L21.183 13.1402L15.3502 7.30509C15.0948 7.04972 14.9513 6.70336 14.9513 6.3422C14.9513 5.98105 15.0948 5.63469 15.3502 5.37931C15.6056 5.12394 15.9519 4.98047 16.3131 4.98047C16.6742 4.98047 17.0206 5.12394 17.276 5.37931L25.4322 13.5356C25.5589 13.6619 25.6595 13.8119 25.7281 13.9772C25.7967 14.1424 25.832 14.3195 25.832 14.4985C25.832 14.6774 25.7967 14.8545 25.7281 15.0198C25.6595 15.185 25.5589 15.3351 25.4322 15.4613L17.276 23.6176C17.1497 23.7443 16.9996 23.8449 16.8344 23.9135C16.6691 23.9821 16.492 24.0174 16.3131 24.0174C16.1342 24.0174 15.957 23.9821 15.7918 23.9135C15.6265 23.8449 15.4765 23.7443 15.3502 23.6176Z" fill="#191919"/>
</svg>
