<svg width="11" height="11" viewBox="0 0 11 11" fill="none" xmlns="http://www.w3.org/2000/svg">
<path d="M5.80591 8.39642C5.76585 8.3565 5.73407 8.30906 5.71238 8.25683C5.69069 8.2046 5.67953 8.14861 5.67953 8.09205C5.67953 8.0355 5.69069 7.9795 5.71238 7.92728C5.73407 7.87505 5.76585 7.82761 5.80591 7.78769L7.64963 5.94397H2.38596C2.272 5.94397 2.1627 5.8987 2.08212 5.81812C2.00154 5.73754 1.95627 5.62825 1.95627 5.51429C1.95627 5.40033 2.00154 5.29103 2.08212 5.21045C2.1627 5.12987 2.272 5.0846 2.38596 5.0846H7.64963L5.80591 3.24017C5.72519 3.15944 5.67984 3.04996 5.67984 2.9358C5.67984 2.82165 5.72519 2.71216 5.80591 2.63144C5.88663 2.55072 5.99611 2.50537 6.11027 2.50537C6.22443 2.50537 6.33391 2.55072 6.41463 2.63144L8.99276 5.20957C9.03282 5.24949 9.0646 5.29692 9.08629 5.34915C9.10798 5.40138 9.11914 5.45738 9.11914 5.51393C9.11914 5.57048 9.10798 5.62648 9.08629 5.67871C9.0646 5.73094 9.03282 5.77837 8.99276 5.81829L6.41463 8.39642C6.37472 8.43647 6.32728 8.46826 6.27505 8.48994C6.22282 8.51163 6.16683 8.5228 6.11027 8.5228C6.05372 8.5228 5.99772 8.51163 5.94549 8.48994C5.89327 8.46826 5.84583 8.43647 5.80591 8.39642Z" fill="#191919"/>
</svg>
