<svg width="41" height="48" viewBox="0 0 41 48" fill="none" xmlns="http://www.w3.org/2000/svg">
<path d="M39.292 22.6709C39.0307 22.9331 38.7202 23.1411 38.3784 23.2831C38.0365 23.425 37.67 23.4981 37.2998 23.4981C36.9296 23.4981 36.5631 23.425 36.2212 23.2831C35.8794 23.1411 35.5689 22.9331 35.3076 22.6709L23.2396 10.6029V45.056C23.2396 45.802 22.9433 46.5173 22.4159 47.0448C21.8884 47.5722 21.1731 47.8685 20.4271 47.8685C19.6812 47.8685 18.9659 47.5722 18.4384 47.0448C17.911 46.5173 17.6146 45.802 17.6146 45.056V10.6029L5.54199 22.6709C5.01363 23.1992 4.29702 23.4961 3.5498 23.4961C2.80259 23.4961 2.08597 23.1992 1.55761 22.6709C1.02925 22.1425 0.732422 21.4259 0.732422 20.6787C0.732422 19.9315 1.02925 19.2149 1.55761 18.6865L18.4326 1.8115C18.6939 1.5493 19.0044 1.34126 19.3462 1.19931C19.6881 1.05736 20.0546 0.984283 20.4248 0.984283C20.795 0.984283 21.1615 1.05736 21.5034 1.19931C21.8452 1.34126 22.1557 1.5493 22.417 1.8115L39.292 18.6865C39.5542 18.9478 39.7622 19.2583 39.9042 19.6001C40.0461 19.942 40.1192 20.3085 40.1192 20.6787C40.1192 21.0489 40.0461 21.4154 39.9042 21.7572C39.7622 22.0991 39.5542 22.4096 39.292 22.6709Z" fill="#F9F9F9"/>
</svg>
