<svg width="78" height="205" viewBox="0 0 78 205" fill="none" xmlns="http://www.w3.org/2000/svg">
<path d="M23.0455 104.081C41.4818 105.954 50.7 115.281 50.7 132.062V160.394C50.7 169.37 52.4333 175.809 55.9 179.712C59.3667 183.614 65.1182 185.565 73.1545 185.565H78V205H70.6727C55.4667 205 44.2788 201.605 37.1091 194.814C30.0182 188.102 26.4727 177.604 26.4727 163.321V140.023C26.4727 130.969 24.503 124.647 20.5636 121.057C16.703 117.388 9.84848 115.515 0 115.437V89.5631C9.7697 89.4851 16.6242 87.6509 20.5636 84.0605C24.503 80.3922 26.4727 74.031 26.4727 64.9772V41.4449C26.4727 27.2397 30.0182 16.7809 37.1091 10.0685C44.2788 3.35618 55.4667 0 70.6727 0H78V19.5517H73.1545C65.1182 19.5517 59.3667 21.5029 55.9 25.4055C52.4333 29.23 50.7 35.6301 50.7 44.6059V72.9383C50.7 89.7192 41.4818 99.0463 23.0455 100.919V104.081Z" fill="#D8F25F"/>
</svg>
