<svg width="212" height="24" viewBox="0 0 212 24" fill="none" xmlns="http://www.w3.org/2000/svg">
<path d="M15.5781 11.9219C15.5781 13.6094 15.9323 15.0208 16.6406 16.1562C17.3385 17.3021 18.4062 17.875 19.8438 17.875C21.3021 17.875 22.3802 17.3021 23.0781 16.1562C23.776 15.0417 24.125 13.6302 24.125 11.9219C24.125 10.2552 23.776 8.84896 23.0781 7.70312C22.3802 6.57812 21.3021 6.01562 19.8438 6.01562C18.4062 6.01562 17.3385 6.57812 16.6406 7.70312C15.9323 8.86979 15.5781 10.276 15.5781 11.9219ZM0.796875 23V0.890625H7.32812V9.4375H9.28125C9.69792 6.71875 10.8073 4.53125 12.6094 2.875C14.401 1.22917 16.8125 0.40625 19.8438 0.40625C21.6042 0.40625 23.1719 0.697917 24.5469 1.28125C25.9323 1.86458 27.0625 2.67708 27.9375 3.71875C28.8229 4.76042 29.4896 5.97396 29.9375 7.35938C30.3958 8.74479 30.625 10.2656 30.625 11.9219C30.625 13.5781 30.3958 15.1042 29.9375 16.5C29.4896 17.8958 28.8229 19.1146 27.9375 20.1562C27.0625 21.1979 25.9323 22.0156 24.5469 22.6094C23.1719 23.1927 21.6042 23.4844 19.8438 23.4844C16.8229 23.4844 14.401 22.6615 12.5781 21.0156C10.7552 19.3594 9.64583 17.099 9.25 14.2344H7.32812V23H0.796875ZM32.2344 23V0.890625H38.7656V8.5H45.5469V0.890625H52.0781V23H45.5469V13.2969H38.7656V23H32.2344ZM53.6719 23V0.890625H60.2031V13.2031H60.75L67.4688 0.890625H75.1094V23H68.5938V10.4844H68.1094L61.2969 23H53.6719ZM60.2031 14.2031L60.2344 14.1719H60.2031V14.2031ZM76.7031 11.9219C76.7031 10.276 76.9271 8.76042 77.375 7.375C77.8333 5.97917 78.5 4.76042 79.375 3.71875C80.25 2.67708 81.375 1.86458 82.75 1.28125C84.1354 0.697917 85.7031 0.40625 87.4531 0.40625C89.2135 0.40625 90.7865 0.697917 92.1719 1.28125C93.5573 1.86458 94.6875 2.67708 95.5625 3.71875C96.4375 4.76042 97.1042 5.97917 97.5625 7.375C98.0208 8.76042 98.25 10.276 98.25 11.9219C98.25 13.5781 98.0208 15.1042 97.5625 16.5C97.1042 17.8958 96.4375 19.1146 95.5625 20.1562C94.6875 21.1979 93.5573 22.0156 92.1719 22.6094C90.7865 23.1927 89.2135 23.4844 87.4531 23.4844C85.7031 23.4844 84.1354 23.1927 82.75 22.6094C81.375 22.0156 80.25 21.1979 79.375 20.1562C78.5 19.1146 77.8333 17.8958 77.375 16.5C76.9271 15.1042 76.7031 13.5781 76.7031 11.9219ZM83.2031 11.9219C83.2031 13.6094 83.5573 15.0208 84.2656 16.1562C84.9635 17.3021 86.026 17.875 87.4531 17.875C88.9115 17.875 89.9896 17.3021 90.6875 16.1562C91.3958 15.0208 91.75 13.6094 91.75 11.9219C91.75 10.276 91.3958 8.86979 90.6875 7.70312C89.9896 6.57812 88.9115 6.01562 87.4531 6.01562C86.026 6.01562 84.9635 6.57812 84.2656 7.70312C83.5573 8.86979 83.2031 10.276 83.2031 11.9219ZM99.8281 23V0.890625H106.359V8.5H113.141V0.890625H119.672V23H113.141V13.2969H106.359V23H99.8281ZM121.266 23V0.890625H127.797V23H121.266ZM129.172 8.21875L134.484 0.890625H141.875L135 10.2969C134.99 10.3177 134.948 10.3802 134.875 10.4844C134.802 10.5885 134.766 10.6667 134.766 10.7188C134.766 10.7812 134.833 10.9479 134.969 11.2188L141.875 23H134.844L129.328 13.2969C128.651 12.1406 128.312 11.1823 128.312 10.4219C128.312 9.74479 128.599 9.01042 129.172 8.21875ZM139.953 11.9219C139.953 10.276 140.177 8.76042 140.625 7.375C141.083 5.97917 141.75 4.76042 142.625 3.71875C143.5 2.67708 144.625 1.86458 146 1.28125C147.385 0.697917 148.953 0.40625 150.703 0.40625C152.464 0.40625 154.036 0.697917 155.422 1.28125C156.807 1.86458 157.938 2.67708 158.812 3.71875C159.688 4.76042 160.354 5.97917 160.812 7.375C161.271 8.76042 161.5 10.276 161.5 11.9219C161.5 13.5781 161.271 15.1042 160.812 16.5C160.354 17.8958 159.688 19.1146 158.812 20.1562C157.938 21.1979 156.807 22.0156 155.422 22.6094C154.036 23.1927 152.464 23.4844 150.703 23.4844C148.953 23.4844 147.385 23.1927 146 22.6094C144.625 22.0156 143.5 21.1979 142.625 20.1562C141.75 19.1146 141.083 17.8958 140.625 16.5C140.177 15.1042 139.953 13.5781 139.953 11.9219ZM146.453 11.9219C146.453 13.6094 146.807 15.0208 147.516 16.1562C148.214 17.3021 149.276 17.875 150.703 17.875C152.161 17.875 153.24 17.3021 153.938 16.1562C154.646 15.0208 155 13.6094 155 11.9219C155 10.276 154.646 8.86979 153.938 7.70312C153.24 6.57812 152.161 6.01562 150.703 6.01562C149.276 6.01562 148.214 6.57812 147.516 7.70312C146.807 8.86979 146.453 10.276 146.453 11.9219ZM163.078 23V0.890625H169.609V8.5H176.391V0.890625H182.922V23H176.391V13.2969H169.609V23H163.078ZM194.562 23V20.0312C191.521 19.6458 189.089 18.7344 187.266 17.2969C185.432 15.8594 184.516 13.9427 184.516 11.5469C184.516 9.14062 185.432 7.21875 187.266 5.78125C189.089 4.34375 191.521 3.44792 194.562 3.09375V0.890625H201.094V3.09375C204.135 3.44792 206.568 4.34375 208.391 5.78125C210.203 7.20833 211.109 9.13021 211.109 11.5469C211.109 13.9531 210.203 15.8698 208.391 17.2969C206.568 18.7344 204.135 19.6458 201.094 20.0312V23H194.562ZM191.016 11.5469C191.016 12.401 191.292 13.0625 191.844 13.5312C192.396 13.9896 193.302 14.3073 194.562 14.4844V8.625C193.312 8.80208 192.406 9.125 191.844 9.59375C191.292 10.0625 191.016 10.7135 191.016 11.5469ZM201.094 8.625V14.4844C202.323 14.3073 203.214 13.9896 203.766 13.5312C204.328 13.0625 204.609 12.401 204.609 11.5469C204.609 10.7135 204.328 10.0625 203.766 9.59375C203.214 9.125 202.323 8.80208 201.094 8.625Z" fill="white"/>
</svg>
