<svg width="156" height="134" viewBox="0 0 156 134" fill="none" xmlns="http://www.w3.org/2000/svg">
<path d="M80.7617 133.018L81.4992 58.754L104.473 52.9238V133.018H80.7617ZM109.465 79.4713L128.751 52.9238H155.582L130.623 86.9995C130.585 87.0748 130.434 87.3013 130.169 87.6787C129.905 88.0558 129.773 88.3391 129.773 88.5279C129.773 88.7539 130.018 89.3578 130.51 90.3392L155.582 133.018H130.056L110.032 97.8674C107.574 93.6786 106.345 90.207 106.345 87.4523C106.345 84.9994 107.385 82.339 109.465 79.4713Z" fill="white"/>
<path d="M54.5568 42.1702C54.5568 48.2834 55.8427 53.3964 58.4141 57.5095C60.9478 61.6607 64.824 63.7361 70.0431 63.7361C75.3374 63.7361 79.2514 61.6607 81.7851 57.5095C84.3187 53.4721 85.5858 48.3588 85.5858 42.1702C85.5858 36.1323 84.3187 31.0382 81.7851 26.887C79.2514 22.8115 75.3374 20.7738 70.0431 20.7738C64.824 20.7738 60.9478 22.8115 58.4141 26.887C55.8427 31.1135 54.5568 36.2077 54.5568 42.1702ZM0.894531 82.3022V2.20782H24.6058V33.1701H31.6965C33.2092 23.3212 37.2367 15.3963 43.7791 9.39652C50.2834 3.43427 59.0382 0.453125 70.0431 0.453125C76.4342 0.453125 82.1256 1.50974 87.1174 3.62294C92.1471 5.73613 96.2502 8.6796 99.4268 12.4533C102.641 16.2266 105.062 20.6231 106.688 25.6419C108.351 30.6607 109.184 36.17 109.184 42.1702C109.184 48.17 108.351 53.6985 106.688 58.755C105.062 63.8115 102.641 68.2268 99.4268 72.0001C96.2502 75.7738 92.1471 78.736 87.1174 80.8872C82.1256 83.0003 76.4342 84.057 70.0431 84.057C59.076 84.057 50.2834 81.0759 43.6655 75.1134C37.0476 69.1136 33.0201 60.925 31.5831 50.5476H24.6058V82.3022H0.894531Z" fill="white"/>
</svg>
