<svg width="188" height="24" viewBox="0 0 188 24" fill="none" xmlns="http://www.w3.org/2000/svg">
<path d="M19.8125 0.890625V13.1094C19.8125 16.4844 19.026 19.0573 17.4531 20.8281C15.8802 22.599 13.4948 23.4844 10.2969 23.4844C3.96354 23.4844 0.796875 20.026 0.796875 13.1094V0.890625H7.32812V13.1094C7.32812 14.7552 7.54167 15.9583 7.96875 16.7188C8.39583 17.4688 9.17188 17.8438 10.2969 17.8438C11.4219 17.8438 12.1979 17.4635 12.625 16.7031C13.0625 15.9427 13.2812 14.7448 13.2812 13.1094V0.890625H19.8125ZM21.3906 23V5.96875C21.3906 4.27083 21.9896 2.91667 23.1875 1.90625C24.3854 0.885417 26.0365 0.375 28.1406 0.375C30.2656 0.375 31.9271 0.869792 33.125 1.85938C34.3333 2.84896 35 4.21875 35.125 5.96875L36.3438 17.9688C36.375 18.2083 36.4792 18.3281 36.6562 18.3281C36.7396 18.3281 36.8125 18.2969 36.875 18.2344C36.9479 18.1615 36.9844 18.0729 36.9844 17.9688V0.953125H43.5V17.9688C43.5 19.6979 42.901 21.0677 41.7031 22.0781C40.5156 23.0781 38.8542 23.5781 36.7188 23.5781C34.6354 23.5781 32.9792 23.0677 31.75 22.0469C30.5312 21.026 29.8958 19.6667 29.8438 17.9688L28.5625 5.96875C28.5312 5.71875 28.4219 5.59375 28.2344 5.59375C28.151 5.59375 28.0781 5.63021 28.0156 5.70312C27.9531 5.77604 27.9219 5.86458 27.9219 5.96875V23H21.3906ZM45.1094 23V0.890625H51.6406V23H45.1094ZM53.2344 11.9219C53.2344 10.276 53.4583 8.76042 53.9062 7.375C54.3646 5.97917 55.0312 4.76042 55.9062 3.71875C56.7812 2.67708 57.9062 1.86458 59.2812 1.28125C60.6667 0.697917 62.2344 0.40625 63.9844 0.40625C65.7448 0.40625 67.3177 0.697917 68.7031 1.28125C70.0885 1.86458 71.2188 2.67708 72.0938 3.71875C72.9688 4.76042 73.6354 5.97917 74.0938 7.375C74.5521 8.76042 74.7812 10.276 74.7812 11.9219C74.7812 13.5781 74.5521 15.1042 74.0938 16.5C73.6354 17.8958 72.9688 19.1146 72.0938 20.1562C71.2188 21.1979 70.0885 22.0156 68.7031 22.6094C67.3177 23.1927 65.7448 23.4844 63.9844 23.4844C62.2344 23.4844 60.6667 23.1927 59.2812 22.6094C57.9062 22.0156 56.7812 21.1979 55.9062 20.1562C55.0312 19.1146 54.3646 17.8958 53.9062 16.5C53.4583 15.1042 53.2344 13.5781 53.2344 11.9219ZM59.7344 11.9219C59.7344 13.6094 60.0885 15.0208 60.7969 16.1562C61.4948 17.3021 62.5573 17.875 63.9844 17.875C65.4427 17.875 66.5208 17.3021 67.2188 16.1562C67.9271 15.0208 68.2812 13.6094 68.2812 11.9219C68.2812 10.276 67.9271 8.86979 67.2188 7.70312C66.5208 6.57812 65.4427 6.01562 63.9844 6.01562C62.5573 6.01562 61.4948 6.57812 60.7969 7.70312C60.0885 8.86979 59.7344 10.276 59.7344 11.9219ZM76.3594 23V5.96875C76.3594 4.27083 76.9583 2.91667 78.1562 1.90625C79.3542 0.885417 81.0052 0.375 83.1094 0.375C85.2344 0.375 86.8958 0.869792 88.0938 1.85938C89.3021 2.84896 89.9688 4.21875 90.0938 5.96875L91.3125 17.9688C91.3438 18.2083 91.4479 18.3281 91.625 18.3281C91.7083 18.3281 91.7812 18.2969 91.8438 18.2344C91.9167 18.1615 91.9531 18.0729 91.9531 17.9688V0.953125H98.4688V17.9688C98.4688 19.6979 97.8698 21.0677 96.6719 22.0781C95.4844 23.0781 93.8229 23.5781 91.6875 23.5781C89.6042 23.5781 87.9479 23.0677 86.7188 22.0469C85.5 21.026 84.8646 19.6667 84.8125 17.9688L83.5312 5.96875C83.5 5.71875 83.3906 5.59375 83.2031 5.59375C83.1198 5.59375 83.0469 5.63021 82.9844 5.70312C82.9219 5.77604 82.8906 5.86458 82.8906 5.96875V23H76.3594ZM115 14.5156H121.578C121.422 17.0781 120.344 19.2135 118.344 20.9219C116.354 22.6302 113.906 23.4844 111 23.4844C109.219 23.4844 107.625 23.1927 106.219 22.6094C104.823 22.0156 103.677 21.1979 102.781 20.1562C101.896 19.1146 101.224 17.8958 100.766 16.5C100.307 15.1042 100.078 13.5781 100.078 11.9219C100.078 10.276 100.307 8.76042 100.766 7.375C101.234 5.97917 101.911 4.76042 102.797 3.71875C103.693 2.67708 104.839 1.86458 106.234 1.28125C107.641 0.697917 109.229 0.40625 111 0.40625C113.771 0.40625 116.146 1.22917 118.125 2.875C120.104 4.52083 121.255 6.56771 121.578 9.01562H114.891C114.714 8.10938 114.26 7.38542 113.531 6.84375C112.812 6.29167 111.943 6.01562 110.922 6.01562C109.453 6.01562 108.37 6.57812 107.672 7.70312C106.943 8.84896 106.578 10.2552 106.578 11.9219C106.578 13.6302 106.943 15.0417 107.672 16.1562C108.37 17.3021 109.453 17.875 110.922 17.875C112.026 17.875 112.964 17.5625 113.734 16.9375C114.505 16.3021 114.927 15.4948 115 14.5156ZM123.016 11.9219C123.016 10.276 123.24 8.76042 123.688 7.375C124.146 5.97917 124.812 4.76042 125.688 3.71875C126.562 2.67708 127.688 1.86458 129.062 1.28125C130.448 0.697917 132.016 0.40625 133.766 0.40625C135.526 0.40625 137.099 0.697917 138.484 1.28125C139.87 1.86458 141 2.67708 141.875 3.71875C142.75 4.76042 143.417 5.97917 143.875 7.375C144.333 8.76042 144.562 10.276 144.562 11.9219C144.562 13.5781 144.333 15.1042 143.875 16.5C143.417 17.8958 142.75 19.1146 141.875 20.1562C141 21.1979 139.87 22.0156 138.484 22.6094C137.099 23.1927 135.526 23.4844 133.766 23.4844C132.016 23.4844 130.448 23.1927 129.062 22.6094C127.688 22.0156 126.562 21.1979 125.688 20.1562C124.812 19.1146 124.146 17.8958 123.688 16.5C123.24 15.1042 123.016 13.5781 123.016 11.9219ZM129.516 11.9219C129.516 13.6094 129.87 15.0208 130.578 16.1562C131.276 17.3021 132.339 17.875 133.766 17.875C135.224 17.875 136.302 17.3021 137 16.1562C137.708 15.0208 138.062 13.6094 138.062 11.9219C138.062 10.276 137.708 8.86979 137 7.70312C136.302 6.57812 135.224 6.01562 133.766 6.01562C132.339 6.01562 131.276 6.57812 130.578 7.70312C129.87 8.86979 129.516 10.276 129.516 11.9219ZM146.141 23V5.96875C146.141 4.27083 146.74 2.91667 147.938 1.90625C149.135 0.885417 150.786 0.375 152.891 0.375C155.016 0.375 156.677 0.869792 157.875 1.85938C159.083 2.84896 159.75 4.21875 159.875 5.96875L161.094 17.9688C161.125 18.2083 161.229 18.3281 161.406 18.3281C161.49 18.3281 161.562 18.2969 161.625 18.2344C161.698 18.1615 161.734 18.0729 161.734 17.9688V0.953125H168.25V17.9688C168.25 19.6979 167.651 21.0677 166.453 22.0781C165.266 23.0781 163.604 23.5781 161.469 23.5781C159.385 23.5781 157.729 23.0677 156.5 22.0469C155.281 21.026 154.646 19.6667 154.594 17.9688L153.312 5.96875C153.281 5.71875 153.172 5.59375 152.984 5.59375C152.901 5.59375 152.828 5.63021 152.766 5.70312C152.703 5.77604 152.672 5.86458 152.672 5.96875V23H146.141ZM169.859 23V0.890625H187.938V6.60938H176.391V9.4375H186.859V14.2344H176.391V23H169.859Z" fill="#F9F9F9"/>
</svg>
