<svg width="147" height="133" viewBox="0 0 147 133" fill="none" xmlns="http://www.w3.org/2000/svg">
<path d="M81 59C81 63.2023 79.9524 67.3635 77.9171 71.2459C75.8818 75.1283 72.8986 78.6559 69.1378 81.6274C65.3771 84.5989 60.9124 86.956 55.9987 88.5641C51.085 90.1723 45.8185 91 40.5 91C35.1815 91 29.915 90.1723 25.0013 88.5641C20.0876 86.956 15.6229 84.5989 11.8622 81.6274C8.1014 78.6559 5.11819 75.1283 3.08288 71.2459C1.04756 67.3634 -4.64961e-07 63.2023 0 59L23.9845 59C23.9845 60.7137 24.4117 62.4105 25.2416 63.9938C26.0716 65.577 27.2882 67.0155 28.8218 68.2273C30.3554 69.439 32.176 70.4002 34.1798 71.056C36.1835 71.7118 38.3311 72.0493 40.5 72.0493C42.6688 72.0493 44.8165 71.7118 46.8202 71.056C48.824 70.4002 50.6446 69.439 52.1782 68.2273C53.7118 67.0155 54.9284 65.577 55.7584 63.9938C56.5883 62.4105 57.0155 60.7137 57.0155 59H81Z" fill="white"/>
<path fill-rule="evenodd" clip-rule="evenodd" d="M128.424 47.8305C137.82 54.5811 144.395 64.5598 146.892 75.8563L124.484 80.8093C122.196 68.3529 112.551 59.0016 100.999 59.0016C87.7442 59.0016 76.9991 71.3137 76.9991 86.5016C76.9991 101.689 87.7442 114.002 100.999 114.002C112.802 114.002 122.615 104.239 124.623 91.3759L146.828 96.4289C144.261 107.71 137.624 117.647 128.186 124.339C118.749 131.031 107.175 134.008 95.6802 132.698C84.1854 131.389 73.5773 125.885 65.887 117.242C58.1966 108.599 53.9643 97.4232 54.0002 85.854C54.0362 74.2849 58.3379 63.1355 66.0818 54.5403C73.8258 45.945 84.4678 40.508 95.9706 39.27C107.473 38.032 119.029 41.08 128.424 47.8305Z" fill="white"/>
<path d="M0 0H24V59H0V0Z" fill="white"/>
<path d="M57 0H80.9963V59H57V0Z" fill="white"/>
</svg>
