<svg width="1921" height="262" viewBox="0 0 1921 262" fill="none" xmlns="http://www.w3.org/2000/svg">
<path d="M1469.48 76.4651C1434.01 76.4651 1405.15 105.327 1405.15 140.8C1405.15 174.946 1461.81 253.087 1464.29 256.465H1468.29C1468.57 256.836 1470.19 256.465 1470.65 256.465C1471.11 256.465 1472.85 255.506 1473.13 255.135L1474.29 256.77C1476.78 253.392 1533.82 174.946 1533.82 140.8C1533.82 105.327 1504.95 76.4651 1469.48 76.4651ZM1469.48 117.755C1482.19 117.755 1492.53 128.091 1492.53 140.8C1492.53 153.503 1482.19 163.845 1469.48 163.845C1456.78 163.845 1446.44 153.503 1446.44 140.8C1446.44 128.091 1456.78 117.755 1469.48 117.755Z" fill="#F9F9F9"/>
<path d="M1448.79 255.327H1490.14" stroke="#8CB0FA" stroke-width="3" stroke-linecap="round"/>
<circle cx="1469.29" cy="140.965" r="23.5" fill="#DCF36E"/>
<path fill-rule="evenodd" clip-rule="evenodd" d="M0.775391 0.353027H1920.78V236.073C1920.78 200.174 1891.67 171.073 1855.78 171.073H1685.79L1672.77 169.343C1625.62 163.081 1583.13 137.698 1555.28 99.1533C1523.15 44.9722 1448.83 35.0571 1403.62 78.9224L1382.78 99.1533L1381.44 101.077C1355.95 137.794 1317.04 162.9 1273.24 171.073H65.7754C29.877 171.073 0.775391 200.174 0.775391 236.073V0.353027Z" fill="#FDFDFD"/>
</svg>
