<svg width="455" height="486" viewBox="0 0 455 486" fill="none" xmlns="http://www.w3.org/2000/svg">
<g filter="url(#filter0_d_543_913)">
<path fill-rule="evenodd" clip-rule="evenodd" d="M124.264 13.9219C124.264 13.7549 124.265 13.5882 124.268 13.4219H36.2637C20.7997 13.4219 8.26367 25.9579 8.26367 41.4219V406.422C8.26367 421.886 20.7997 434.422 36.2637 434.422H125.268C125.265 434.588 125.264 434.755 125.264 434.922C125.264 451.214 138.471 464.422 154.764 464.422H283.764C300.056 464.422 313.264 451.214 313.264 434.922C313.264 434.755 313.262 434.588 313.26 434.422H401.264C416.728 434.422 429.264 421.886 429.264 406.422V41.4219C429.264 25.9579 416.728 13.4219 401.264 13.4219H312.26C312.262 13.5882 312.264 13.7549 312.264 13.9219C312.264 30.2143 299.056 43.4219 282.764 43.4219H153.764C137.471 43.4219 124.264 30.2143 124.264 13.9219Z" fill="#D8F25F"/>
</g>
<defs>
<filter id="filter0_d_543_913" x="0.563671" y="0.721874" width="454.4" height="484.4" filterUnits="userSpaceOnUse" color-interpolation-filters="sRGB">
<feFlood flood-opacity="0" result="BackgroundImageFix"/>
<feColorMatrix in="SourceAlpha" type="matrix" values="0 0 0 0 0 0 0 0 0 0 0 0 0 0 0 0 0 0 127 0" result="hardAlpha"/>
<feOffset dx="9" dy="4"/>
<feGaussianBlur stdDeviation="8.35"/>
<feComposite in2="hardAlpha" operator="out"/>
<feColorMatrix type="matrix" values="0 0 0 0 0.721569 0 0 0 0 0.745098 0 0 0 0 0.937255 0 0 0 0.66 0"/>
<feBlend mode="normal" in2="BackgroundImageFix" result="effect1_dropShadow_543_913"/>
<feBlend mode="normal" in="SourceGraphic" in2="effect1_dropShadow_543_913" result="shape"/>
</filter>
</defs>
</svg>
